# xmcd
#
# Track frame offsets:
#	150
#	15143
#	28035
#	46508
#	60409
#	71827
#	86274
#	96944
#	113572
#	133528
#	152203
#	165184
#	179819
#	192977
#	207452
#	218368
#	228435
#	247824
#	262460
#	277382
#
# Disc length: 3886 seconds
#
# Revision: 0
# Processed by: cddbd v1.5.2PL0 Copyright (c) Steve Scherf et al.
# Submitted via: EasyCDDAExtractor 12.0.1.1
#
DISCID=110f2c14
DTITLE=Heidi Hauge - Best Of Heidi Hauge - CD 02
DYEAR=2009
DGENRE=Country
TTITLE0=Don't Tell Me What To Do
TTITLE1=The Other Side Of The Hill
TTITLE2=My Farewell Party
TTITLE3=Between The Two Of Them
TTITLE4=Love Is The Foundation
TTITLE5=Honkey Tonk Angels
TTITLE6=Hello Little Bluebird
TTITLE7=Mama He's Crazy
TTITLE8=Skaidi
TTITLE9=You Got Gold
TTITLE10=Stranger
TTITLE11=Coal Miners Daughter
TTITLE12=Sorry You Asked
TTITLE13=Forth Worth
TTITLE14=Silver Threads And Golden Needles
TTITLE15=Making Plans
TTITLE16=Yellow Roses
TTITLE17=Harper Valley PTA
TTITLE18=Lay Down Besides Me
TTITLE19=Mama Say A Prayer
EXTD=
EXTT0=
EXTT1=
EXTT2=
EXTT3=
EXTT4=
EXTT5=
EXTT6=
EXTT7=
EXTT8=
EXTT9=
EXTT10=
EXTT11=
EXTT12=
EXTT13=
EXTT14=
EXTT15=
EXTT16=
EXTT17=
EXTT18=
EXTT19=
PLAYORDER=
